<?xml version="1.0" encoding="UTF-8" standalone="no"?> <svg id="Layer_1" data-name="Layer 1" xmlns="http://www.w3.org/2000/svg" viewBox="0 0 128 128"><defs><style>.cls-1{fill:#2d3e50;}.cls-2{fill:#2e79bd;}</style></defs><title>n</title><path class="cls-1" d="M111.57924,16.41147A45.928,45.928,0,0,0,41.2971,74.96139a45.48227,45.48227,0,0,0,3.11538,4.01047l-4.06941,4.06941-4.92266-4.92292L5.85886,108.18576a9.86045,9.86045,0,1,0,13.95537,13.93417L49.36385,92.06471l-3.55673-3.55214-.00021.00026-.86149-.86117,4.07587-4.07592q1.61707,1.402,3.32808,2.63078a45.92306,45.92306,0,0,0,59.22987-69.795Zm-9.98169,54.96225A31.843,31.843,0,1,1,110.8993,48.881,31.7071,31.7071,0,0,1,101.59756,71.37371Z"/><path class="cls-2" d="M92.74847,45.48936A13.64183,13.64183,0,0,1,79.75484,27.68927,21.21373,21.21373,0,1,0,99.65511,43.61976,13.6516,13.6516,0,0,1,92.74847,45.48936Z"/></svg>